<?xml version="1.0" standalone="no"?>
<!DOCTYPE svg PUBLIC "-//W3C//DTD SVG 20010904//EN"
 "http://www.w3.org/TR/2001/REC-SVG-20010904/DTD/svg10.dtd">
<svg version="1.0" xmlns="http://www.w3.org/2000/svg"
 width="1940.524094pt" height="1195.387753pt" viewBox="0 0 1940.524094 1195.387753"
 preserveAspectRatio="xMidYMid meet">
<metadata>
Created by potrace 1.12, written by Peter Selinger 2001-2015
</metadata>
<g transform="translate(-32.975906,1669.000000) scale(0.100000,-0.100000)"
fill="#000000" stroke="none">
<path d="M8126 16674 c-3 -9 -6 -281 -6 -605 l0 -589 323 2 322 3 3 288 2 287
460 0 460 0 -2 -677 -3 -678 -360 -2 c-198 -2 -366 -3 -372 -3 -10 0 -13 -68
-13 -304 0 -268 2 -305 16 -310 27 -11 2120 -7 2148 4 l26 10 -2 297 -3 298
-366 3 c-293 2 -369 5 -378 16 -8 9 -10 199 -9 677 l3 664 458 3 457 2 0 -277
c0 -153 4 -284 8 -291 7 -9 79 -12 328 -10 l319 3 3 589 c1 426 -1 593 -9 602
-10 12 -320 14 -1909 14 -1721 0 -1898 -1 -1904 -16z m3769 -594 l0 -555 -275
0 -275 0 -5 290 -5 290 -500 0 -500 0 0 -720 0 -720 370 -5 370 -5 3 -262 2
-263 -1050 0 -1050 0 2 263 3 262 364 3 c249 1 369 6 378 13 18 16 20 1408 1
1427 -18 18 -981 17 -997 -1 -7 -9 -12 -107 -13 -293 l-3 -279 -275 0 -275 0
-3 545 c-1 300 0 551 3 558 3 10 382 12 1867 10 l1863 -3 0 -555z"/>
<path d="M8315 16478 c-3 -7 -4 -191 -3 -408 l3 -395 127 -3 128 -3 2 293 3
293 653 3 652 2 0 -875 0 -875 -375 0 -375 0 0 -115 0 -115 900 0 900 0 0 115
0 115 -372 2 -373 3 0 870 0 870 647 3 648 2 2 -292 3 -293 133 -3 132 -3 -2
408 -3 408 -1713 3 c-1366 2 -1714 0 -1717 -10z"/>
<path d="M4655 14816 c-62 -13 -167 -54 -173 -68 -2 -4 -8 -8 -14 -8 -33 0
-188 -133 -188 -161 0 -20 496 -518 2435 -2444 642 -638 1189 -1182 1216
-1210 27 -27 52 -54 56 -58 5 -4 86 -85 181 -179 94 -94 172 -174 172 -179 0
-5 5 -9 10 -9 6 0 32 -23 58 -51 26 -29 53 -57 60 -63 37 -31 232 -232 232
-238 0 -5 6 -8 13 -8 15 0 227 -213 227 -229 0 -6 6 -11 13 -11 16 0 227 -213
227 -229 0 -7 3 -10 8 -7 10 6 234 -219 225 -227 -3 -4 0 -7 7 -7 17 0 230
-210 230 -227 0 -7 6 -13 13 -13 6 0 90 -79 186 -175 96 -96 179 -175 186
-175 6 0 1084 1073 2396 2385 1311 1311 2387 2385 2391 2385 4 0 116 111 250
247 351 356 712 723 717 728 10 11 -97 108 -160 145 -115 68 -228 100 -358
100 -80 0 -185 -17 -231 -37 -127 -55 -173 -83 -262 -161 -72 -63 -109 -76
-208 -70 -65 4 -85 10 -129 36 -39 24 -56 30 -69 23 -9 -6 -1000 -993 -2202
-2195 -1202 -1202 -2190 -2186 -2195 -2186 -6 0 -94 84 -195 188 -260 264
-900 912 -1394 1413 -232 234 -657 666 -946 959 -289 294 -721 733 -960 975
-239 242 -527 533 -640 648 -112 114 -210 207 -216 207 -7 0 -19 -6 -26 -14
-23 -22 -73 -45 -115 -52 -61 -9 -116 11 -184 69 -99 84 -164 124 -274 167
-75 30 -262 38 -370 16z m319 -52 c91 -23 264 -120 265 -149 1 -13 -451 -465
-464 -465 -6 0 -26 16 -45 35 l-33 34 52 56 c85 90 50 126 -39 39 -25 -24 -50
-44 -54 -44 -16 0 -76 50 -76 63 0 7 50 62 110 122 107 107 127 139 94 152
-11 4 -51 -29 -135 -113 l-119 -118 -35 34 c-19 19 -35 39 -35 44 0 6 23 34
51 62 34 35 50 58 46 68 -11 28 -40 17 -94 -36 l-53 -52 -37 36 c-22 23 -34
42 -30 52 17 43 176 142 287 177 73 23 259 25 344 3z m10490 -13 c98 -33 181
-80 231 -131 l35 -36 -40 -39 -40 -39 -53 52 c-29 29 -60 52 -70 52 -31 0 -18
-34 35 -87 l53 -53 -41 -41 -41 -40 -117 115 c-64 64 -123 116 -131 116 -8 0
-15 -2 -15 -4 0 -2 -2 -10 -5 -18 -3 -8 41 -61 111 -132 l117 -118 -42 -41
-42 -42 -50 53 c-51 52 -89 67 -89 35 0 -10 24 -41 52 -70 l53 -53 -40 -40
-40 -40 -234 234 -233 233 49 35 c123 90 233 126 390 127 98 1 123 -3 197 -28z
m-9960 -397 l218 -217 -228 -232 c-126 -127 -234 -233 -239 -233 -6 -1 -28 15
-48 36 l-37 38 50 49 c33 33 50 57 48 70 -5 31 -38 20 -86 -30 -24 -25 -46
-45 -50 -45 -11 0 -72 63 -72 75 0 6 50 60 110 120 105 105 131 145 92 145 -9
0 -67 -49 -127 -110 -60 -60 -114 -110 -120 -110 -6 0 -26 16 -45 35 l-34 35
47 48 c27 28 47 57 47 70 0 36 -36 27 -84 -23 -25 -25 -48 -45 -52 -45 -12 0
-74 62 -74 74 0 11 450 466 460 466 4 0 104 -97 224 -216z m254 83 l133 -133
-62 -62 c-34 -34 -63 -62 -64 -62 -8 0 -325 324 -321 328 3 2 22 6 42 8 20 2
58 14 83 27 25 13 48 25 51 26 3 0 65 -59 138 -132z m8657 120 c40 -27 112
-47 168 -47 31 0 57 -2 57 -4 0 -10 -323 -327 -330 -324 -5 2 -43 36 -85 77
l-76 74 118 119 c65 65 120 118 123 118 3 0 14 -6 25 -13z m610 -217 c126
-126 227 -231 224 -232 -2 -2 -21 -19 -42 -38 l-37 -34 -48 47 c-49 48 -92 62
-92 30 0 -10 22 -40 49 -68 l50 -50 -35 -37 c-19 -21 -38 -38 -42 -38 -4 0
-57 50 -117 110 -107 108 -137 126 -149 94 -4 -11 29 -52 111 -135 64 -65 114
-120 112 -122 -2 -1 -21 -18 -42 -37 l-37 -34 -48 47 c-49 48 -92 62 -92 31 0
-9 23 -39 50 -67 l50 -50 -22 -26 c-13 -14 -28 -31 -35 -38 -6 -7 -15 -13 -20
-13 -12 0 -453 443 -453 455 0 10 420 435 430 435 3 0 108 -103 235 -230z
m-755 -202 c0 -4 -205 -212 -457 -463 l-456 -457 -81 81 -81 81 461 461 461
460 76 -79 c42 -43 77 -81 77 -84z m-7879 -341 l452 -458 -54 -55 c-29 -30
-59 -54 -65 -54 -11 0 -914 898 -914 909 0 10 114 121 122 119 4 -2 210 -209
459 -461z m-406 76 l217 -216 -236 -236 -235 -235 -36 34 c-19 19 -35 39 -35
45 0 6 20 31 45 55 46 46 57 76 29 87 -10 4 -34 -12 -70 -48 l-54 -53 -40 39
-40 39 115 116 c115 117 136 150 93 150 -15 0 -59 -36 -135 -112 l-113 -112
-40 39 -40 39 50 51 c27 28 50 58 50 68 0 32 -43 18 -92 -30 l-48 -47 -35 34
c-19 19 -35 39 -35 44 0 12 450 466 462 466 3 0 104 -97 223 -217z m8562 -5
c123 -123 223 -227 223 -232 0 -13 -61 -76 -74 -76 -6 0 -34 23 -62 51 -35 34
-58 50 -68 46 -27 -11 -18 -33 34 -84 27 -26 50 -52 50 -58 0 -13 -61 -75 -75
-75 -6 0 -60 50 -120 110 -60 61 -118 110 -127 110 -39 0 -13 -40 92 -145 61
-60 110 -114 110 -120 0 -6 -16 -26 -35 -45 l-35 -34 -53 52 c-32 31 -61 52
-75 52 -36 0 -26 -32 28 -85 28 -27 50 -54 50 -59 0 -11 -60 -76 -70 -76 -7 0
-460 453 -460 460 0 10 425 430 435 430 5 0 110 -100 232 -222z m-8082 -474
l217 -217 -236 -236 -236 -236 -42 42 -43 43 53 53 c90 91 58 124 -35 36 l-55
-52 -41 42 -42 41 113 113 c61 62 112 120 112 130 0 38 -40 12 -147 -95 l-113
-113 -42 43 -43 42 53 53 c54 55 62 74 36 84 -10 4 -34 -12 -70 -48 l-54 -54
-41 41 -41 41 228 231 c126 126 234 230 241 231 6 1 109 -96 228 -215z m7602
-6 c123 -123 223 -228 223 -233 0 -6 -16 -26 -35 -45 l-35 -34 -53 52 c-55 54
-80 64 -91 35 -5 -12 10 -33 49 -73 l55 -56 -40 -39 -40 -39 -113 112 c-76 76
-120 112 -135 112 -43 0 -22 -36 88 -145 61 -60 110 -114 110 -120 0 -6 -16
-26 -35 -45 l-35 -34 -54 53 c-52 51 -84 63 -93 34 -3 -7 20 -39 51 -71 l56
-58 -40 -39 -40 -39 -233 232 -232 232 215 215 c118 118 219 215 225 215 5 0
110 -100 232 -222z m-829 -121 c39 -40 72 -78 72 -84 0 -15 -899 -915 -910
-911 -5 2 -43 36 -85 77 l-76 74 458 459 c252 252 460 458 463 458 3 0 38 -33
78 -73z m-6019 -311 c179 -182 379 -386 445 -453 l119 -123 -49 -54 c-27 -29
-52 -54 -55 -55 -9 -2 -909 901 -909 912 0 18 102 117 114 110 5 -4 156 -155
335 -337z m-285 -32 c119 -118 216 -218 216 -222 0 -4 -103 -110 -230 -237
l-230 -229 -37 34 c-21 19 -40 36 -42 38 -3 1 19 26 47 55 56 57 66 87 29 87
-14 0 -40 -18 -67 -45 -24 -25 -49 -45 -55 -45 -6 0 -26 16 -45 35 l-34 35
113 114 c110 110 129 142 93 154 -7 2 -66 -48 -131 -112 l-117 -116 -39 40
-39 40 53 54 c36 36 52 60 48 70 -10 27 -36 18 -86 -29 -26 -25 -52 -45 -58
-45 -5 0 -24 16 -43 35 l-34 35 234 235 c129 129 236 235 236 235 1 0 99 -97
218 -216z m6671 -23 l220 -221 -42 -41 -41 -42 -55 52 c-59 56 -87 65 -87 28
0 -14 18 -40 45 -67 25 -24 45 -49 45 -55 0 -6 -16 -26 -35 -45 l-35 -34 -118
117 c-64 64 -123 117 -130 117 -7 0 -15 -7 -19 -16 -4 -11 29 -51 113 -135
l119 -119 -43 -43 -43 -42 -49 53 c-52 54 -90 68 -90 32 0 -11 23 -42 52 -70
l52 -51 -42 -42 -42 -41 -232 232 -233 232 219 219 c171 171 223 218 235 211
9 -5 115 -108 236 -229z m-6190 -457 l217 -217 -234 -234 -235 -234 -36 36
c-20 20 -37 40 -37 44 0 4 20 27 45 51 46 45 58 80 28 80 -10 0 -39 -21 -65
-47 l-48 -47 -40 40 -40 40 110 110 c73 73 110 117 110 132 0 46 -39 23 -149
-88 -59 -60 -111 -110 -114 -110 -8 0 -77 71 -77 79 0 4 22 28 49 55 34 34 47
54 44 67 -8 29 -23 23 -80 -33 l-53 -52 -40 39 -40 39 227 232 c126 127 231
232 235 232 3 1 104 -95 223 -214z m5700 -14 l229 -230 -34 -35 c-19 -19 -39
-35 -45 -35 -6 0 -31 20 -55 45 -27 27 -53 45 -67 45 -37 0 -27 -30 29 -87
l52 -53 -39 -40 -39 -40 -116 115 c-114 112 -144 131 -157 99 -4 -11 29 -51
113 -135 l118 -119 -34 -35 c-19 -19 -38 -35 -43 -35 -6 0 -34 22 -63 50 -34
32 -58 48 -68 44 -28 -11 -17 -37 36 -91 l52 -53 -39 -40 -39 -40 -233 232
-233 233 217 217 c120 120 220 218 223 218 3 0 108 -103 235 -230z m-821 -138
c36 -35 66 -65 66 -67 0 -2 -205 -209 -456 -460 l-457 -457 -81 81 -81 81 463
463 c400 398 465 459 472 442 4 -11 37 -48 74 -83z m-4013 -413 c244 -248 446
-455 448 -461 4 -12 -78 -98 -94 -98 -8 0 -866 850 -914 905 -7 8 91 105 104
105 6 0 211 -203 456 -451z m-391 91 c115 -115 210 -216 210 -222 0 -16 -440
-458 -455 -458 -6 0 -26 16 -45 35 l-34 35 48 49 c46 47 57 79 29 88 -7 3 -36
-18 -65 -45 l-53 -50 -38 34 c-20 19 -37 38 -37 42 0 4 50 57 110 117 110 109
131 145 88 145 -15 0 -59 -36 -133 -110 l-111 -110 -39 40 -39 40 48 49 c46
46 57 79 30 88 -6 2 -36 -19 -65 -46 l-54 -51 -40 40 -40 40 230 230 c126 127
233 230 237 230 4 0 102 -94 218 -210z m4745 -20 l229 -230 -34 -35 c-19 -19
-37 -35 -41 -35 -3 0 -29 23 -56 50 -52 51 -79 62 -90 34 -4 -10 12 -33 46
-68 28 -28 51 -56 51 -61 0 -11 -61 -75 -72 -75 -4 0 -57 50 -117 110 -69 69
-117 110 -130 110 -42 0 -19 -37 89 -145 61 -60 110 -114 110 -120 0 -6 -16
-26 -35 -45 l-35 -34 -54 53 c-35 35 -60 52 -72 49 -29 -6 -18 -38 32 -88 24
-25 44 -50 44 -55 0 -13 -62 -75 -74 -75 -14 0 -456 441 -456 455 0 10 420
435 430 435 3 0 108 -103 235 -230z m-4259 -467 l216 -216 -229 -229 c-125
-125 -232 -228 -237 -228 -14 0 -76 62 -76 75 0 6 20 31 45 55 47 46 58 80 27
80 -10 0 -38 -20 -62 -45 -24 -25 -49 -45 -55 -45 -6 0 -26 16 -45 35 l-34 35
113 114 c62 63 111 121 109 128 -12 36 -46 16 -148 -87 -57 -58 -109 -105
-115 -105 -6 0 -26 16 -45 35 -37 38 -37 38 28 101 35 35 41 61 16 71 -10 4
-33 -12 -68 -46 l-52 -51 -39 40 -39 40 229 230 c126 127 233 230 238 230 4 0
104 -97 223 -217z m3781 -5 c123 -123 223 -228 223 -233 0 -6 -16 -26 -35 -45
l-35 -34 -53 52 c-32 31 -61 52 -75 52 -37 0 -26 -31 33 -90 l55 -56 -40 -39
-40 -39 -113 112 c-76 76 -120 112 -135 112 -43 0 -22 -36 88 -145 61 -60 110
-114 110 -120 0 -6 -16 -26 -35 -45 l-35 -34 -53 52 c-57 56 -87 66 -87 30 0
-13 20 -43 50 -73 l50 -51 -40 -39 -40 -39 -233 232 -232 232 215 215 c118
118 219 215 225 215 5 0 110 -100 232 -222z m-836 -124 c41 -41 75 -79 77 -84
4 -10 -898 -912 -908 -908 -4 2 -43 36 -85 77 l-78 73 459 459 c252 253 460
459 460 459 1 0 35 -34 75 -76z m-2461 -61 c41 -43 242 -247 447 -454 205
-207 373 -381 373 -386 0 -12 -88 -98 -94 -92 -50 44 -906 905 -906 911 0 11
83 96 96 97 6 1 44 -34 84 -76z m-3 -291 c112 -112 203 -207 203 -210 0 -4
-103 -110 -229 -236 l-230 -230 -35 35 c-20 19 -36 39 -36 44 0 6 20 31 45 55
50 49 59 80 23 80 -13 0 -42 -20 -70 -47 l-48 -47 -35 34 c-19 19 -35 39 -35
45 0 6 47 57 105 115 105 105 126 140 83 140 -15 0 -58 -35 -130 -107 l-108
-107 -35 34 c-19 19 -35 39 -35 45 0 6 20 31 45 55 25 24 45 52 45 62 0 31
-34 20 -80 -27 -24 -25 -49 -45 -55 -45 -14 0 -80 68 -74 75 2 3 105 108 229
234 181 183 228 225 240 217 8 -6 106 -102 217 -214z m3043 -237 c0 -6 -15
-26 -34 -44 l-34 -33 -54 51 c-92 89 -126 55 -36 -36 l53 -53 -43 -42 -42 -43
-118 118 c-64 64 -123 117 -130 117 -6 0 -12 -10 -12 -22 0 -15 36 -59 112
-135 l112 -113 -39 -40 -39 -40 -51 50 c-30 30 -60 50 -73 50 -36 0 -26 -30
30 -87 l53 -53 -43 -43 -42 -42 -233 233 -232 232 220 220 220 220 227 -227
c126 -125 228 -233 228 -238z m-2575 -231 c118 -118 215 -218 215 -222 0 -4
-103 -110 -229 -236 l-229 -229 -36 35 c-20 19 -36 40 -36 45 0 6 21 31 46 56
25 26 44 52 42 59 -10 29 -42 19 -89 -28 l-49 -48 -35 34 c-19 19 -35 39 -35
45 0 6 47 57 105 115 72 71 105 112 105 127 0 44 -35 23 -146 -88 l-111 -111
-37 32 c-20 18 -36 37 -36 42 0 6 21 33 46 60 81 86 37 114 -48 30 l-48 -46
-35 34 c-19 19 -35 39 -35 44 0 9 449 466 457 466 2 0 100 -97 218 -216z
m1877 -15 l230 -231 -33 -34 c-18 -19 -38 -34 -43 -34 -6 0 -31 20 -56 44 -50
50 -82 61 -88 32 -3 -12 14 -37 49 -72 l53 -54 -39 -40 -39 -40 -116 115
c-115 115 -150 136 -150 93 0 -15 36 -59 112 -135 l112 -113 -34 -35 c-19 -19
-39 -35 -45 -35 -6 0 -31 20 -55 45 -27 27 -53 45 -67 45 -38 0 -27 -30 29
-87 l53 -53 -41 -40 -40 -40 -232 232 -232 233 218 218 c119 119 218 217 220
217 1 0 107 -104 234 -231z m-824 -129 l73 -77 -201 -202 c-111 -110 -205
-201 -209 -201 -4 0 -98 91 -209 202 l-202 203 48 48 48 47 120 -120 c66 -66
124 -120 130 -120 5 0 77 68 159 150 82 83 154 149 160 149 5 -1 43 -36 83
-79z m-583 -325 l204 -205 -231 -230 -231 -230 -24 22 c-12 12 -23 27 -23 33
0 6 18 29 40 50 22 21 40 47 40 57 0 32 -39 20 -77 -22 -20 -22 -41 -40 -48
-40 -6 0 -28 17 -48 38 l-37 38 110 109 c61 60 110 118 110 127 0 42 -44 15
-151 -92 l-109 -109 -35 30 c-19 17 -35 39 -35 48 0 9 18 35 40 56 39 38 50
68 30 80 -5 3 -34 -17 -65 -45 l-57 -51 -34 33 c-18 18 -34 37 -34 43 0 8 449
465 458 465 2 0 95 -92 207 -205z m930 -25 l229 -230 -34 -35 c-19 -19 -39
-35 -44 -35 -6 0 -34 23 -62 51 -35 34 -58 50 -68 46 -28 -11 -17 -40 36 -94
l52 -53 -34 -35 c-19 -19 -39 -35 -45 -35 -6 0 -60 50 -120 110 -60 61 -118
110 -127 110 -39 0 -13 -40 92 -145 61 -60 110 -114 110 -119 0 -13 -61 -76
-73 -76 -5 0 -32 23 -59 51 -49 50 -80 60 -86 27 -2 -9 20 -40 47 -69 28 -30
51 -57 51 -60 0 -3 -11 -16 -25 -29 l-26 -24 -232 232 -232 232 205 205 c113
113 207 205 210 205 3 0 108 -103 235 -230z m-454 -452 l231 -231 -51 -51 -51
-51 -53 53 c-32 31 -61 52 -75 52 -36 0 -26 -32 28 -85 28 -27 50 -54 50 -59
0 -11 -60 -76 -70 -76 -4 0 -56 50 -115 110 -60 61 -116 110 -125 110 -9 0
-67 -51 -128 -112 l-111 -113 -41 40 -40 39 46 47 c44 45 54 77 27 86 -7 3
-35 -17 -63 -43 l-51 -48 -52 52 -52 52 230 230 c126 127 231 230 232 230 1 0
107 -104 234 -232z m-134 -390 c51 -51 93 -97 93 -103 0 -6 -16 -26 -35 -45
l-35 -34 -53 52 c-29 29 -59 52 -67 52 -8 0 -38 -24 -67 -52 l-53 -53 -40 41
-41 40 93 95 c51 53 97 97 103 97 5 1 51 -40 102 -90z m-60 -180 c18 -18 33
-37 33 -43 0 -6 -16 -26 -35 -45 l-35 -34 -40 39 -40 39 37 38 c20 21 39 38
42 38 3 0 20 -14 38 -32z"/>
<path d="M1110 6557 c-3 -3 -23 -8 -45 -11 -162 -20 -351 -123 -486 -263 -128
-133 -182 -236 -230 -438 -86 -363 118 -785 461 -955 115 -57 164 -74 267 -89
190 -29 356 -4 541 80 l63 29 -33 44 c-18 24 -37 51 -43 60 -9 13 -18 11 -79
-19 -188 -92 -456 -85 -645 17 -248 134 -401 383 -401 653 0 205 85 401 236
546 52 50 174 131 215 144 13 4 29 11 34 15 28 22 225 51 300 44 81 -7 193
-34 230 -54 29 -16 30 -19 33 -103 l3 -87 74 0 75 0 0 134 c0 128 -1 134 -22
148 -45 29 -177 77 -258 94 -37 8 -284 17 -290 11z"/>
<path d="M2625 6554 c-11 -2 -45 -9 -75 -16 -30 -6 -59 -15 -64 -20 -6 -4 -17
-8 -25 -8 -26 0 -162 -72 -231 -121 -71 -51 -157 -138 -206 -209 -36 -51 -99
-173 -109 -210 -3 -14 -10 -34 -15 -45 -12 -28 -40 -200 -40 -249 0 -56 28
-221 46 -276 61 -184 159 -312 359 -468 21 -17 181 -91 210 -98 17 -4 35 -10
40 -14 6 -4 45 -12 88 -19 437 -63 818 147 991 549 15 36 36 115 55 208 41
201 -41 484 -196 675 -73 91 -187 179 -308 238 -89 43 -131 58 -215 75 -34 8
-280 14 -305 8z m310 -161 c56 -13 152 -51 185 -73 8 -6 25 -14 37 -20 40 -17
185 -164 228 -230 54 -84 101 -203 111 -277 33 -265 -37 -475 -218 -649 -152
-146 -314 -212 -523 -212 -100 0 -131 5 -235 36 -173 53 -354 210 -428 372
-47 104 -52 119 -67 199 -19 97 -19 159 0 257 25 132 63 214 151 331 78 105
177 178 329 244 106 46 293 56 430 22z"/>
<path d="M12725 6554 c-98 -13 -273 -84 -365 -148 -119 -82 -248 -234 -299
-351 -12 -27 -26 -59 -31 -70 -30 -68 -60 -228 -60 -317 0 -153 60 -342 153
-484 70 -106 218 -244 290 -270 9 -3 17 -10 17 -15 0 -5 4 -9 10 -9 5 0 33
-11 62 -25 114 -53 236 -77 373 -74 97 2 203 16 227 29 10 6 26 10 36 10 10 0
22 4 27 8 6 4 37 19 70 32 90 35 89 33 43 101 -27 38 -45 56 -52 51 -22 -17
-142 -63 -198 -76 -113 -26 -274 -17 -409 23 -134 40 -300 174 -390 316 -86
134 -123 336 -95 515 44 278 276 524 561 595 131 33 317 19 438 -33 l37 -16 0
-88 0 -88 80 0 80 0 0 129 c0 150 0 151 -112 191 -35 12 -72 26 -83 30 -20 9
-64 20 -100 28 -30 6 -276 11 -310 6z"/>
<path d="M16560 6554 c-19 -2 -60 -12 -90 -21 -30 -10 -57 -18 -60 -18 -13 -4
-50 -20 -100 -43 -206 -99 -386 -298 -453 -502 -37 -111 -47 -174 -47 -300 0
-157 27 -277 83 -380 11 -19 28 -51 38 -70 35 -66 127 -171 205 -233 80 -63
253 -157 290 -157 11 0 24 -4 29 -9 14 -12 164 -31 249 -31 159 1 265 27 414
103 197 100 346 270 430 492 57 148 57 435 2 570 -5 11 -12 31 -15 44 -18 63
-114 208 -190 285 -130 133 -290 224 -464 262 -34 7 -275 13 -321 8z m315
-161 c33 -8 74 -20 90 -27 17 -7 45 -20 63 -27 17 -8 32 -17 32 -20 0 -4 11
-10 25 -13 14 -4 25 -11 25 -16 0 -6 5 -10 11 -10 19 0 119 -92 164 -150 153
-199 196 -412 135 -660 -25 -103 -120 -259 -204 -333 -87 -78 -235 -167 -278
-167 -8 0 -18 -3 -22 -7 -30 -31 -273 -41 -386 -16 -86 19 -230 90 -308 153
-115 93 -209 243 -248 395 -23 88 -23 265 -1 348 86 314 347 539 662 570 59 6
172 -3 240 -20z"/>
<path d="M3839 6545 c0 -3 0 -38 -1 -77 l0 -73 106 -5 106 -5 0 -715 0 -715
-107 -3 -108 -3 2 -67 1 -67 274 0 273 0 3 68 3 67 -95 0 -96 0 -2 638 c-2
350 0 640 3 645 3 4 34 -25 70 -65 35 -40 91 -100 123 -135 32 -35 68 -73 78
-86 11 -12 38 -42 61 -68 23 -25 105 -114 182 -199 77 -84 196 -215 265 -290
69 -75 184 -201 256 -281 72 -79 177 -195 235 -258 l104 -115 3 827 2 827 105
0 105 0 0 80 0 80 -275 0 -275 0 0 -80 0 -80 95 0 95 0 0 -650 c0 -357 -3
-650 -7 -649 -5 0 -62 62 -128 136 -66 75 -167 188 -225 253 -58 64 -136 152
-175 195 -38 43 -83 92 -98 109 -15 17 -56 62 -90 100 -34 39 -145 162 -247
275 -102 112 -200 223 -219 245 -19 23 -57 65 -85 94 l-50 52 -133 0 c-73 0
-133 -2 -134 -5z"/>
<path d="M6345 6538 c-161 -54 -254 -140 -300 -278 -22 -67 -26 -254 -6 -297
7 -16 20 -43 29 -61 22 -47 118 -132 182 -163 30 -15 84 -36 120 -47 207 -64
246 -77 260 -83 8 -4 35 -17 58 -29 64 -30 128 -95 159 -159 35 -75 38 -211 5
-282 -27 -57 -111 -144 -160 -165 -102 -44 -246 -56 -348 -29 -49 13 -163 62
-174 74 -3 4 -17 14 -32 24 -27 17 -27 20 -30 128 l-3 111 -75 0 -75 0 -3
-130 -3 -131 32 -35 c43 -50 190 -138 250 -151 19 -4 39 -11 44 -15 17 -12
149 -30 223 -30 106 0 180 17 270 62 100 50 170 121 216 218 30 63 31 69 31
205 0 124 -3 147 -24 199 -34 85 -131 180 -236 230 -44 21 -87 42 -95 46 -9 4
-31 11 -50 15 -50 10 -132 35 -152 46 -10 5 -23 9 -28 9 -19 0 -101 41 -155
76 -77 51 -100 98 -100 204 0 97 20 146 84 213 51 54 153 97 230 97 52 0 201
-30 241 -49 l35 -16 3 -88 3 -88 71 3 70 3 -1 125 c-2 95 -5 127 -16 133 -8 4
-20 13 -27 20 -28 26 -119 64 -188 80 -63 14 -299 18 -335 5z"/>
<path d="M7180 6360 l0 -191 68 3 67 3 1 105 1 105 236 3 237 2 0 -720 0 -720
-105 0 -105 0 0 -70 0 -70 275 0 275 0 0 70 0 70 -95 0 -95 0 0 720 0 720 235
0 235 0 0 -110 0 -110 75 0 75 0 -2 188 -3 187 -687 3 -688 2 0 -190z"/>
<path d="M8744 6536 c-3 -7 -4 -42 -2 -77 l3 -64 63 -5 62 -5 0 -715 1 -715
-66 -3 -65 -3 0 -69 0 -70 280 0 280 0 0 70 0 70 -140 0 -140 0 0 325 0 326
141 -3 c114 -2 144 -6 150 -18 11 -19 153 -316 187 -390 13 -30 60 -128 103
-217 l78 -163 161 0 160 0 0 70 0 70 -113 0 -113 0 -61 128 c-34 70 -83 172
-109 227 -25 55 -68 146 -95 203 -27 56 -49 104 -49 107 0 2 15 6 33 10 42 9
140 58 183 93 48 37 108 129 130 199 14 43 19 86 18 168 -1 102 -3 115 -31
170 -58 115 -205 224 -348 259 -136 33 -175 36 -431 36 -213 0 -266 -3 -270
-14z m651 -161 c126 -33 229 -115 265 -212 25 -67 25 -94 0 -175 -27 -89 -76
-142 -170 -187 l-75 -35 -193 -1 -193 0 1 308 c0 169 0 309 0 312 0 13 309 4
365 -10z"/>
<path d="M10184 6537 c-3 -8 -4 -43 -2 -78 l3 -64 97 -3 97 -3 3 -594 c2 -459
6 -597 16 -607 6 -6 12 -21 12 -33 0 -36 86 -170 141 -219 43 -39 113 -85 139
-91 8 -2 42 -16 65 -25 85 -36 375 -37 460 -2 153 63 259 149 313 254 67 130
71 171 71 796 l1 522 95 0 95 0 0 80 0 80 -272 -2 -273 -3 0 -75 0 -75 103 -3
103 -3 -4 -567 c-3 -618 0 -580 -64 -694 -33 -58 -113 -132 -163 -149 -14 -5
-34 -13 -45 -18 -49 -21 -107 -30 -195 -29 -200 3 -341 83 -413 236 l-32 67
-3 577 -3 577 103 3 103 3 0 75 0 75 -273 3 c-223 2 -273 0 -278 -11z"/>
<path d="M13504 6537 c-2 -7 -3 -91 -2 -187 l3 -175 69 0 69 0 -2 108 -2 107
240 0 241 0 0 -720 0 -719 -102 -3 -103 -3 -3 -44 c-2 -25 -1 -55 3 -68 l5
-23 270 0 270 0 0 70 0 69 -92 3 -93 3 -3 718 -2 717 235 0 235 0 0 -110 0
-110 75 0 75 0 0 190 0 190 -690 0 c-553 0 -692 -3 -696 -13z"/>
<path d="M15070 6470 l0 -80 100 0 100 0 0 -720 0 -720 -100 0 -100 0 0 -70 0
-70 273 2 272 3 3 67 3 67 -103 3 -103 3 -3 717 -2 717 102 3 103 3 0 75 0 75
-272 3 -273 2 0 -80z"/>
<path d="M17784 6536 c-3 -7 -4 -42 -2 -77 l3 -64 103 -3 102 -3 0 -719 0
-720 -105 0 -106 0 3 -67 3 -68 273 0 274 0 1 67 2 67 -95 3 -95 3 -2 637 c-2
384 1 639 7 643 5 3 14 -5 21 -17 7 -12 17 -28 23 -34 6 -6 40 -43 76 -80 36
-38 103 -112 150 -164 46 -52 114 -126 150 -165 36 -38 85 -93 110 -120 25
-28 110 -122 190 -210 80 -87 197 -215 260 -285 63 -69 156 -171 206 -225 50
-55 109 -121 130 -147 21 -26 42 -47 47 -47 4 -1 7 370 7 824 l0 824 108 3
107 3 0 75 0 75 -275 0 -275 0 0 -75 0 -75 93 -3 92 -3 0 -633 c0 -348 2 -640
6 -649 9 -26 -21 -21 -39 6 -8 12 -23 31 -33 42 -133 145 -208 228 -249 275
-67 77 -276 310 -345 385 -30 33 -89 98 -130 145 -41 46 -102 114 -135 150
-33 36 -76 84 -95 105 -34 40 -203 227 -267 298 l-35 37 -129 0 c-100 0 -131
-3 -135 -14z"/>
</g>
</svg>
