<?xml version="1.0" standalone="no"?>
<!DOCTYPE svg PUBLIC "-//W3C//DTD SVG 20010904//EN"
 "http://www.w3.org/TR/2001/REC-SVG-20010904/DTD/svg10.dtd">
<svg version="1.0" xmlns="http://www.w3.org/2000/svg"
 width="1978.755927pt" height="1522.978398pt" viewBox="0 0 1978.755927 1522.978398"
 preserveAspectRatio="xMidYMid meet">
<metadata>
Created by potrace 1.12, written by Peter Selinger 2001-2015
</metadata>
<g transform="translate(-6.244073,1766.000000) scale(0.100000,-0.100000)"
fill="#000000" stroke="none">
<path d="M8013 17648 c-9 -15 -17 -1137 -8 -1185 l6 -33 323 0 c286 0 325 2
330 16 3 9 6 141 6 295 l0 279 470 0 470 0 -2 -687 -3 -688 -380 -5 -380 -5 0
-310 0 -310 1104 -3 c608 -1 1109 2 1113 6 10 10 12 597 3 612 -4 6 -154 10
-380 10 -331 0 -374 2 -379 16 -8 20 -8 1328 0 1348 5 14 56 16 470 16 l464 0
0 -282 c0 -156 4 -289 8 -296 7 -9 80 -12 333 -10 l324 3 3 590 c1 325 0 600
-3 613 l-5 22 -1940 0 c-1540 0 -1940 -3 -1947 -12z m3847 -603 c0 -311 -3
-565 -7 -565 -20 0 -540 -1 -550 0 -10 0 -13 69 -15 293 l-3 292 -510 0 -510
0 -3 -724 c-1 -523 1 -728 9 -737 9 -11 85 -14 380 -16 l370 -3 0 -258 c0
-142 -3 -262 -6 -267 -4 -6 -398 -10 -1066 -10 l-1059 0 0 270 0 270 375 0
c360 0 375 1 385 19 12 24 14 1429 2 1449 -7 10 -117 12 -518 10 l-509 -3 -5
-293 -5 -293 -272 0 c-150 0 -277 1 -283 1 -11 0 -15 1112 -3 1123 3 4 861 7
1905 7 l1898 0 0 -565z"/>
<path d="M8207 17453 c-9 -8 -9 -795 -1 -817 5 -13 27 -16 135 -16 l129 0 0
300 0 300 665 0 665 0 0 -890 0 -890 -380 0 -380 0 0 -115 c0 -70 4 -115 10
-115 6 0 416 0 913 0 l902 0 3 115 3 115 -378 2 -378 3 0 888 0 888 655 -1
c360 0 658 0 663 0 4 0 7 -135 7 -300 l0 -301 133 3 132 3 0 415 0 415 -1746
3 c-960 1 -1749 -1 -1752 -5z"/>
<path d="M4520 15764 c-41 -6 -121 -30 -167 -50 -17 -8 -34 -14 -37 -14 -3 0
-30 -15 -59 -34 -73 -47 -167 -134 -167 -155 0 -10 218 -235 488 -503 268
-267 931 -928 1474 -1469 543 -541 1255 -1249 1583 -1574 327 -324 595 -596
595 -602 0 -7 5 -13 12 -13 15 0 598 -582 598 -597 0 -7 6 -13 13 -13 6 0 121
-109 254 -242 133 -134 291 -292 352 -352 61 -60 111 -110 111 -111 0 -5 142
-145 146 -145 2 0 23 -21 46 -47 50 -54 55 -60 131 -131 31 -30 64 -52 72 -50
18 4 5865 5846 5865 5861 0 27 -214 187 -250 187 -6 0 -18 4 -28 9 -86 48
-316 62 -437 27 -100 -29 -201 -84 -303 -167 -77 -62 -106 -80 -140 -85 -96
-14 -195 10 -255 64 -17 15 -151 -117 -2267 -2233 l-2250 -2250 -187 190
c-409 414 -1604 1627 -1878 1905 -159 162 -477 484 -705 715 -228 231 -687
696 -1020 1034 -333 338 -614 622 -624 632 -19 18 -20 18 -51 -5 -87 -67 -191
-69 -271 -5 -168 135 -231 171 -348 204 -58 16 -230 27 -296 19z m264 -60 c33
-8 93 -31 131 -49 69 -33 155 -92 155 -107 0 -7 -467 -478 -474 -478 -7 0 -76
72 -76 79 0 4 23 29 50 56 92 90 46 122 -47 34 l-55 -52 -41 41 -40 41 116
115 c114 112 142 156 100 156 -10 0 -71 -53 -135 -117 l-118 -118 -42 43 -43
42 53 53 c53 54 64 80 36 91 -10 4 -35 -13 -73 -49 l-57 -55 -39 40 c-38 39
-39 40 -19 61 58 65 184 137 299 170 78 23 236 24 319 3z m10656 2 c76 -19
116 -35 175 -67 57 -32 144 -99 145 -114 0 -5 -17 -26 -37 -47 l-37 -38 -58
56 c-32 31 -64 54 -71 51 -29 -9 -17 -41 34 -93 l53 -54 -39 -40 -39 -40 -116
115 c-112 112 -144 132 -157 99 -4 -11 29 -51 113 -135 l119 -119 -43 -42 -42
-43 -53 53 c-29 28 -60 52 -70 52 -32 0 -17 -40 35 -91 l51 -50 -41 -42 -42
-42 -236 235 -235 235 37 32 c48 42 184 109 259 127 77 18 224 19 295 2z
m-10095 -426 l220 -220 -235 -235 c-129 -129 -240 -235 -245 -235 -6 0 -26 16
-45 35 l-34 35 48 49 c35 36 47 55 44 72 -5 37 -36 25 -88 -32 l-46 -49 -42
43 -42 43 115 114 c113 112 131 142 99 154 -12 5 -50 -27 -135 -111 l-119
-117 -37 35 c-21 18 -40 35 -42 37 -3 1 19 26 47 55 53 54 64 83 36 94 -10 4
-34 -12 -70 -48 l-54 -54 -42 43 -43 42 235 235 c129 129 239 235 245 235 6 0
109 -99 230 -220z m255 85 l135 -135 -65 -65 -65 -65 -167 167 c-92 92 -165
170 -162 175 3 4 22 8 42 8 20 0 60 11 87 24 28 14 52 25 55 25 3 1 66 -60
140 -134z m8858 108 c39 -19 78 -29 129 -33 l73 -5 -167 -168 -168 -167 -75
75 c-41 41 -81 75 -90 75 -8 0 41 56 110 125 69 69 127 125 129 125 2 0 29
-12 59 -27z m584 -200 c126 -125 228 -232 228 -237 0 -11 -60 -76 -71 -76 -3
0 -29 23 -56 50 -55 55 -83 64 -83 27 0 -14 18 -40 45 -67 25 -24 45 -49 45
-54 0 -14 -61 -76 -75 -76 -6 0 -60 50 -120 110 -60 61 -117 110 -127 110 -42
0 -24 -28 86 -139 64 -64 116 -121 116 -127 0 -5 -17 -27 -38 -47 l-38 -37
-49 50 c-31 31 -58 50 -72 50 -37 0 -27 -30 29 -87 l52 -53 -34 -35 c-19 -19
-39 -35 -45 -35 -5 0 -114 103 -240 230 l-230 230 220 220 c121 121 222 220
225 220 3 0 107 -102 232 -227z m-832 -135 l74 -79 -467 -467 -467 -467 -82
83 -83 82 465 465 c256 256 469 464 475 464 5 -1 44 -37 85 -81z m-7880 -511
l374 -378 -62 -62 -62 -62 -467 467 -468 468 65 65 65 65 91 -92 c50 -51 259
-263 464 -471z m8423 -119 l-43 -43 -53 53 c-57 56 -87 66 -87 30 0 -14 21
-43 52 -75 28 -29 50 -54 47 -55 -2 -2 -21 -19 -42 -38 l-37 -34 -113 112
c-76 76 -120 112 -135 112 -43 0 -22 -35 93 -150 l115 -116 -40 -39 -40 -39
-53 52 c-32 31 -61 52 -75 52 -36 0 -26 -32 28 -85 28 -27 50 -54 50 -60 0 -6
-17 -28 -38 -48 l-37 -37 -235 235 -235 235 225 225 225 225 235 -235 235
-235 -42 -42z m-8926 290 c117 -117 213 -217 213 -223 0 -11 -460 -475 -470
-475 -3 0 -23 17 -43 38 l-37 38 50 49 c32 32 50 57 48 69 -5 35 -27 28 -81
-23 -30 -28 -58 -51 -62 -51 -13 0 -75 62 -75 75 0 6 52 62 115 125 63 63 115
121 115 128 0 7 -7 15 -16 19 -11 4 -51 -29 -133 -111 -64 -64 -121 -116 -126
-116 -12 0 -75 61 -75 73 0 6 23 34 51 64 28 29 49 59 46 66 -9 29 -41 17 -93
-34 l-54 -53 -35 34 c-19 19 -35 39 -35 44 0 14 461 476 475 476 5 0 105 -96
222 -212z m491 -491 l222 -222 -240 -240 -240 -240 -42 43 -43 42 53 53 c56
57 66 87 30 87 -13 0 -43 -20 -73 -50 l-51 -50 -39 40 -39 40 112 113 c76 76
112 120 112 135 0 43 -35 22 -150 -93 l-116 -115 -42 43 -42 43 50 49 c51 51
64 85 32 85 -10 0 -38 -20 -62 -45 -24 -25 -49 -45 -54 -45 -14 0 -76 61 -76
74 0 11 460 476 470 476 3 0 105 -100 228 -223z m7757 -13 l229 -234 -39 -40
-39 -40 -57 55 c-38 36 -63 53 -73 49 -28 -11 -17 -37 36 -91 l53 -53 -42 -42
-41 -41 -118 116 c-65 65 -124 117 -131 117 -8 0 -16 -7 -20 -16 -4 -11 29
-51 113 -135 l119 -119 -43 -42 -42 -43 -54 54 c-52 51 -84 63 -93 34 -3 -7
20 -39 51 -71 l56 -58 -40 -39 -40 -39 -235 234 -235 235 222 222 c123 123
225 222 228 221 3 0 108 -106 235 -234z m-854 -120 c41 -41 75 -81 77 -87 1
-7 -206 -220 -460 -474 l-463 -463 -83 82 -83 82 468 468 c257 257 469 468
469 468 1 0 35 -34 75 -76z m-6012 -439 c248 -253 451 -464 451 -470 0 -13
-92 -105 -105 -105 -13 0 -925 912 -925 925 0 15 104 116 116 113 7 -2 215
-210 463 -463z m-404 85 l220 -220 -240 -240 -240 -240 -37 37 c-21 20 -38 40
-38 44 0 3 23 29 50 56 55 55 64 83 27 83 -14 0 -40 -18 -67 -45 -24 -25 -49
-45 -55 -45 -6 0 -28 17 -48 38 l-37 38 115 114 c110 110 136 150 97 150 -9 0
-69 -52 -132 -115 l-114 -115 -38 37 c-21 20 -38 42 -38 48 0 6 20 31 45 55
47 46 56 74 29 84 -10 4 -34 -12 -70 -46 l-55 -51 -40 38 -39 39 237 238 c131
131 240 238 243 238 3 0 104 -99 225 -220z m6782 -12 l233 -233 -37 -37 c-20
-21 -40 -38 -44 -38 -3 0 -29 23 -57 51 -32 31 -58 49 -69 47 -34 -6 -25 -37
28 -93 l52 -56 -38 -39 -39 -40 -117 116 c-113 113 -145 132 -157 96 -2 -7 49
-67 114 -133 l118 -119 -39 -40 -39 -40 -51 49 c-55 54 -87 67 -93 37 -3 -12
14 -37 49 -72 l54 -54 -43 -42 -42 -43 -235 235 -235 235 222 222 c123 123
225 223 228 223 3 0 109 -105 237 -232z m-6292 -478 l219 -220 -234 -235
c-129 -129 -239 -235 -244 -235 -14 0 -76 61 -76 75 0 6 20 31 45 55 30 29 45
52 43 65 -5 31 -37 19 -90 -33 l-48 -46 -35 34 c-19 19 -35 39 -35 45 0 6 50
60 110 120 108 108 126 137 94 149 -12 5 -50 -27 -136 -111 l-118 -117 -42 42
-43 42 53 53 c53 53 66 87 35 87 -10 0 -41 -23 -69 -51 l-52 -51 -44 40 -43
41 235 236 c129 129 239 235 245 235 6 0 109 -99 230 -220z m5805 -14 c127
-126 230 -232 229 -235 0 -3 -19 -21 -40 -40 l-40 -34 -52 51 c-57 56 -87 66
-87 29 0 -14 19 -41 50 -72 l50 -49 -37 -38 c-20 -21 -40 -38 -44 -38 -4 0
-57 50 -118 110 -105 105 -140 126 -157 99 -4 -6 45 -63 115 -133 l121 -122
-38 -37 c-21 -20 -42 -37 -47 -37 -5 0 -33 23 -61 51 -35 34 -58 50 -68 46
-28 -11 -17 -40 36 -94 l51 -52 -34 -40 c-19 -21 -36 -40 -39 -40 -3 -1 -111
105 -240 234 l-235 235 220 220 c121 121 223 219 228 217 4 -1 111 -105 237
-231z m-840 -128 l74 -79 -467 -467 -467 -467 -82 83 -83 82 465 465 c256 256
469 464 475 464 5 -1 44 -37 85 -81z m-4090 -429 c250 -254 457 -465 458 -470
2 -5 -20 -32 -48 -60 l-53 -51 -466 466 -466 466 55 55 c30 30 57 55 60 55 3
0 210 -208 460 -461z m4635 -199 l-39 -40 -51 50 c-30 30 -60 50 -73 50 -36 0
-26 -32 28 -85 28 -27 50 -52 50 -56 0 -8 -69 -79 -77 -79 -2 0 -56 51 -119
113 -64 61 -122 113 -130 115 -8 2 -17 -4 -20 -13 -5 -12 25 -49 112 -136
l119 -119 -43 -42 -42 -43 -53 53 c-57 56 -87 66 -87 30 0 -13 21 -43 51 -74
l51 -52 -38 -36 c-22 -19 -44 -36 -49 -36 -6 0 -114 103 -240 230 l-230 230
225 225 225 225 235 -235 234 -235 -39 -40z m-5028 288 c117 -117 213 -217
213 -223 0 -6 -105 -115 -234 -244 l-234 -234 -42 40 -42 39 51 54 c53 56 62
77 35 87 -10 4 -34 -12 -70 -48 l-54 -54 -42 43 -43 42 119 119 c84 84 117
124 113 135 -13 33 -45 13 -152 -94 -60 -60 -114 -110 -120 -110 -6 0 -26 16
-45 35 l-34 35 46 48 c52 52 64 84 34 90 -12 3 -36 -14 -70 -47 l-52 -51 -39
40 -39 40 234 235 c129 129 239 235 245 235 5 0 105 -96 222 -212z m485 -485
c120 -120 218 -221 218 -226 0 -15 -458 -467 -473 -467 -8 0 -29 16 -47 36
l-32 37 51 51 c56 56 65 86 28 86 -14 0 -40 -18 -67 -45 -24 -25 -49 -45 -55
-45 -6 0 -26 16 -45 35 l-34 35 112 113 c76 76 112 120 112 135 0 43 -36 22
-145 -88 -60 -60 -114 -110 -119 -110 -14 0 -76 62 -76 75 0 6 20 31 45 55 29
28 45 52 43 64 -5 34 -25 28 -77 -23 -28 -28 -54 -51 -58 -51 -11 0 -73 63
-73 74 0 11 460 476 470 476 3 0 103 -98 222 -217z m3858 -13 c127 -127 230
-233 230 -237 0 -12 -63 -73 -75 -73 -6 0 -33 23 -60 50 -53 54 -85 64 -85 28
0 -14 21 -43 52 -75 l52 -53 -39 -40 -39 -40 -117 116 c-82 82 -122 115 -135
112 -36 -7 -13 -42 99 -155 l111 -113 -39 -40 -39 -40 -51 50 c-30 30 -60 50
-73 50 -36 0 -26 -30 30 -87 l53 -53 -43 -42 -42 -43 -235 235 -235 235 222
222 c123 123 224 223 225 223 2 0 107 -104 233 -230z m-849 -126 c41 -41 75
-81 77 -87 1 -7 -206 -220 -460 -474 l-463 -463 -83 82 -83 82 468 468 c257
257 469 468 469 468 1 0 35 -34 75 -76z m-2510 -61 c41 -43 246 -253 456 -467
323 -327 381 -391 371 -404 -24 -29 -80 -82 -86 -82 -11 0 -922 914 -922 924
0 13 83 104 96 105 6 1 44 -34 85 -76z m-6 -293 l220 -220 -237 -237 -238
-238 -42 42 -43 43 54 54 c36 36 52 60 48 70 -9 23 -34 10 -90 -43 l-47 -45
-42 42 -43 42 113 113 c112 112 133 147 90 147 -15 0 -59 -36 -135 -112 l-113
-112 -35 34 c-19 19 -35 39 -35 45 0 6 20 31 45 55 27 27 45 53 45 67 0 37
-30 28 -86 -28 l-51 -51 -37 32 c-20 18 -36 37 -36 43 0 11 459 477 470 477 3
0 104 -99 225 -220z m2883 -13 l232 -233 -40 -39 -40 -39 -53 52 c-57 56 -87
66 -87 29 0 -14 19 -41 50 -72 l50 -49 -37 -38 c-20 -21 -41 -38 -45 -38 -5 0
-60 52 -124 116 -63 63 -121 114 -127 111 -35 -11 -14 -46 93 -152 60 -60 110
-114 110 -119 0 -13 -61 -76 -73 -76 -6 0 -34 23 -63 50 -56 53 -71 59 -81 34
-4 -10 12 -33 46 -68 28 -28 51 -56 51 -62 0 -5 -18 -28 -40 -49 l-40 -39
-235 234 -235 235 222 222 c123 123 225 223 228 223 3 0 110 -105 238 -233z
m-268 -709 c8 -13 2 -24 -26 -52 -20 -20 -38 -36 -41 -36 -3 0 -27 23 -53 50
-52 56 -90 67 -90 26 0 -15 18 -40 51 -71 l51 -48 -41 -41 -41 -41 -119 119
c-84 84 -124 117 -135 113 -33 -13 -13 -43 101 -158 64 -65 115 -120 112 -121
-2 -2 -21 -19 -42 -38 l-37 -34 -53 52 c-57 56 -87 66 -87 29 0 -14 18 -40 45
-67 25 -24 45 -49 45 -55 0 -5 -17 -27 -37 -49 l-36 -38 -236 236 -236 236
225 225 225 225 223 -223 c122 -122 227 -229 232 -239z m-2127 234 l217 -217
-237 -238 -237 -238 -40 41 -40 40 48 49 c46 47 57 79 29 88 -7 3 -37 -18 -66
-46 l-53 -51 -39 40 -39 40 112 113 c110 111 128 141 96 154 -11 4 -49 -27
-128 -106 -61 -61 -116 -111 -121 -111 -13 0 -75 62 -75 75 0 6 20 31 45 55
50 50 59 80 21 80 -15 0 -38 -16 -65 -45 -23 -25 -44 -45 -48 -45 -11 0 -73
63 -73 74 0 14 452 466 465 466 6 0 108 -98 228 -218z m1070 -150 l72 -72
-205 -205 c-113 -113 -209 -205 -215 -205 -11 0 -415 401 -415 412 0 4 21 27
48 52 l47 45 120 -119 c66 -66 127 -120 135 -120 8 0 86 71 173 158 109 107
161 152 164 142 3 -8 37 -48 76 -88z m542 -622 l-39 -40 -57 55 c-38 36 -63
53 -73 49 -28 -11 -17 -38 34 -89 28 -27 50 -52 50 -56 0 -12 -72 -80 -79 -74
-3 3 -56 55 -117 115 -107 107 -138 127 -151 94 -4 -11 29 -51 113 -135 l119
-119 -43 -42 -42 -43 -53 53 c-57 56 -87 66 -87 30 0 -14 21 -43 52 -75 28
-29 50 -54 47 -55 -2 -2 -16 -13 -30 -26 l-25 -22 -230 231 c-126 126 -231
232 -234 235 -2 3 90 99 205 214 l210 210 235 -235 234 -235 -39 -40z m-1135
295 l205 -205 -237 -237 -237 -237 -26 24 c-14 13 -25 28 -25 34 0 6 21 31 46
57 31 31 45 53 41 63 -10 26 -30 18 -77 -29 -24 -25 -49 -45 -54 -45 -13 0
-76 61 -76 74 0 6 50 61 111 122 79 79 110 117 106 128 -13 33 -45 13 -154
-96 l-113 -112 -35 34 c-19 19 -35 39 -35 45 0 6 18 29 40 50 39 38 52 77 30
90 -5 3 -35 -17 -65 -46 l-56 -53 -40 40 -39 39 227 231 c126 127 235 231 243
232 8 1 107 -90 220 -203z m709 -720 c-1 -5 -23 -30 -50 -54 l-49 -44 -54 52
c-97 91 -136 52 -44 -45 l51 -55 -38 -39 -39 -40 -116 115 c-63 63 -120 115
-127 115 -6 0 -63 -53 -127 -117 l-115 -118 -43 42 -42 43 48 49 c47 47 57 79
28 89 -7 2 -33 -17 -59 -42 -25 -25 -50 -46 -56 -46 -14 0 -97 81 -97 95 0 5
105 115 232 242 l233 233 232 -232 c128 -128 233 -237 232 -243z m-364 -165
l99 -100 -39 -40 -39 -40 -51 50 c-28 27 -59 50 -70 50 -11 0 -43 -23 -72 -52
l-52 -51 -42 42 -42 42 99 100 c54 54 101 99 104 99 3 0 50 -45 105 -100z
m-55 -185 l34 -35 -42 -42 -42 -42 -35 34 c-19 19 -35 38 -35 44 0 14 61 76
75 76 6 0 26 -16 45 -35z"/>
<path d="M790 4270 c-93 -19 -96 -20 -188 -61 -197 -90 -378 -268 -454 -449
-11 -25 -23 -54 -28 -65 -10 -21 -31 -104 -50 -195 -13 -61 -9 -192 9 -285 34
-174 135 -360 263 -481 78 -75 178 -136 333 -204 105 -45 368 -59 500 -26 84
21 142 42 212 76 l51 25 -41 61 -41 61 -31 -16 c-27 -16 -85 -37 -190 -71 -89
-29 -315 -13 -420 29 -145 59 -245 133 -335 246 -60 77 -92 135 -127 232 -26
73 -28 89 -28 233 0 146 2 159 29 235 16 44 40 97 53 117 13 21 23 40 23 43 0
3 18 29 39 58 109 145 265 247 446 292 43 11 243 13 290 3 59 -12 118 -30 133
-41 6 -5 12 -6 12 -2 0 5 9 0 21 -11 18 -16 20 -28 18 -99 l-2 -80 76 -3 77
-3 0 139 0 139 -62 30 c-182 89 -388 114 -588 73z"/>
<path d="M2353 4271 c-45 -9 -85 -19 -89 -23 -4 -5 -14 -8 -22 -8 -20 0 -136
-56 -202 -98 -82 -52 -214 -186 -269 -272 -76 -121 -115 -230 -142 -403 -13
-84 -3 -194 27 -307 91 -333 338 -572 679 -657 97 -24 314 -23 410 1 85 21
129 37 220 82 343 169 546 575 477 954 -51 281 -249 536 -512 663 -169 81
-385 106 -577 68z m343 -147 c233 -53 428 -207 529 -419 56 -118 75 -200 75
-326 0 -205 -73 -379 -221 -528 -193 -192 -453 -266 -719 -205 -99 23 -211 76
-280 132 -199 163 -300 366 -300 604 0 80 18 190 40 243 85 204 209 346 375
429 91 46 154 66 234 76 70 9 219 5 267 -6z"/>
<path d="M12663 4271 c-45 -9 -85 -19 -89 -23 -4 -5 -14 -8 -22 -8 -8 0 -44
-14 -81 -31 -328 -156 -529 -463 -536 -819 -4 -223 102 -481 264 -640 96 -95
169 -141 346 -220 34 -15 116 -31 211 -42 128 -13 314 9 401 48 17 8 37 14 45
14 7 0 24 9 38 20 14 11 31 20 38 20 27 0 22 30 -14 83 l-37 55 -36 -19 c-172
-86 -334 -106 -521 -63 -76 17 -84 20 -173 65 -38 19 -96 57 -130 85 -58 48
-147 145 -147 159 0 3 -11 21 -23 38 -62 84 -107 247 -107 387 0 253 121 479
336 630 32 22 63 40 71 40 7 0 13 4 13 9 0 5 10 12 23 16 12 4 24 8 27 10 108
47 228 61 384 44 54 -5 106 -14 115 -19 9 -4 35 -16 59 -25 l42 -18 0 -89 0
-89 78 3 77 3 0 135 0 135 -60 31 c-170 86 -394 115 -592 75z"/>
<path d="M16580 4274 c-41 -8 -83 -19 -92 -24 -10 -6 -22 -10 -27 -10 -5 0
-40 -14 -78 -31 -267 -123 -448 -342 -518 -631 -27 -110 -12 -401 24 -483 5
-11 17 -40 27 -65 79 -193 281 -395 474 -474 25 -10 54 -22 65 -27 127 -52
358 -59 540 -16 267 63 528 301 622 568 36 101 43 138 50 257 16 287 -105 560
-328 741 -87 70 -102 81 -115 81 -7 0 -14 3 -16 8 -3 8 -76 43 -128 62 -19 6
-44 16 -55 21 -84 36 -311 48 -445 23z m335 -149 c17 -4 41 -10 55 -15 46 -15
60 -19 65 -20 9 -1 120 -63 150 -84 149 -103 249 -241 307 -422 18 -56 22 -94
22 -199 1 -127 -3 -154 -42 -265 -54 -157 -206 -326 -364 -406 -114 -58 -151
-69 -278 -85 -98 -12 -304 14 -334 42 -6 5 -17 9 -26 9 -8 0 -50 20 -92 45
-267 156 -418 457 -376 750 13 90 21 126 29 131 5 3 9 13 9 22 0 19 41 102 85
173 68 107 233 242 351 284 27 9 56 20 64 23 65 25 294 36 375 17z"/>
<path d="M3640 4198 l0 -78 110 0 110 0 0 -735 0 -735 -110 0 -110 0 0 -75 0
-75 278 2 277 3 3 73 3 72 -96 0 -95 0 -1 640 c-1 352 -2 646 -3 653 -2 28 24
7 99 -78 43 -49 106 -119 139 -155 34 -36 99 -108 146 -160 47 -52 117 -128
155 -170 39 -42 153 -168 255 -280 102 -112 219 -240 260 -285 42 -44 114
-123 160 -175 46 -52 107 -119 134 -148 l51 -53 5 838 5 838 108 3 107 3 0 77
0 77 -277 -2 -278 -3 -3 -74 -3 -75 98 -3 98 -3 3 -648 c1 -357 -2 -655 -6
-663 -6 -12 -36 15 -122 113 -63 70 -139 155 -170 188 -30 33 -71 78 -90 100
-20 22 -94 105 -164 185 -71 80 -154 172 -185 205 -31 34 -92 101 -136 150
-44 49 -105 117 -135 150 -102 113 -195 217 -265 297 l-70 80 -143 1 -142 2 0
-77z"/>
<path d="M6225 4269 c-27 -6 -64 -16 -82 -24 -17 -8 -34 -15 -38 -15 -21 0
-118 -82 -151 -127 -62 -85 -78 -140 -78 -273 -1 -147 15 -199 89 -279 40 -43
76 -68 139 -99 47 -23 92 -42 100 -42 8 0 17 -4 20 -9 4 -5 25 -12 49 -16 23
-3 51 -10 62 -14 11 -5 47 -17 80 -27 130 -40 221 -100 276 -181 39 -57 58
-180 40 -265 -24 -113 -118 -212 -241 -253 -73 -24 -233 -25 -310 0 -72 22
-153 63 -196 98 l-34 28 0 110 0 109 -75 0 -75 0 0 -139 c0 -125 2 -141 21
-165 26 -33 120 -97 184 -126 28 -12 59 -26 70 -31 69 -30 236 -52 335 -44
144 12 252 60 347 152 34 34 63 69 63 77 0 8 4 16 8 18 5 2 21 37 35 79 46
129 34 302 -27 411 -24 42 -83 107 -130 143 -43 32 -147 85 -168 85 -9 0 -19
4 -22 9 -5 7 -37 17 -86 26 -20 4 -140 43 -165 54 -11 5 -38 17 -60 26 -62 27
-131 82 -155 123 -15 24 -24 60 -28 103 -9 131 53 246 163 303 57 29 66 31
175 31 83 -1 131 -6 170 -19 104 -34 100 -28 100 -128 l0 -88 75 0 75 0 0 123
c0 67 -4 127 -8 133 -15 22 -119 81 -172 97 -112 34 -272 45 -375 26z"/>
<path d="M7737 4272 l-697 -2 2 -188 3 -187 70 0 70 0 2 110 1 110 241 3 241
2 0 -735 0 -735 -103 0 c-57 0 -106 -2 -108 -4 -2 -2 -3 -36 -1 -75 l4 -71
276 2 277 3 0 70 0 70 -98 3 -97 3 2 732 3 732 238 3 237 2 0 -115 0 -115 75
0 75 0 0 189 c0 105 -3 191 -7 193 -5 2 -322 2 -706 0z"/>
<path d="M10114 4271 c-2 -2 -4 -37 -4 -78 l0 -73 100 0 100 0 0 -566 c0 -625
2 -646 63 -774 43 -88 138 -184 222 -224 22 -10 47 -22 56 -27 57 -27 163 -43
285 -43 126 -1 154 4 264 41 65 23 173 97 219 151 46 53 92 141 117 222 4 14
10 293 13 620 l6 595 98 3 97 3 0 77 0 77 -277 -2 -278 -3 -3 -75 -3 -75 106
0 106 0 -3 -587 -3 -588 -31 -65 c-80 -168 -226 -253 -434 -253 -200 0 -350
84 -422 234 -47 99 -49 136 -46 714 l3 540 103 3 102 3 0 77 0 77 -276 0
c-152 0 -278 -2 -280 -4z"/>
<path d="M13500 4083 l0 -193 70 0 70 0 0 115 0 115 243 -2 242 -3 3 -732 2
-733 -105 0 -105 0 0 -75 0 -75 278 2 277 3 0 70 0 70 -98 3 -97 3 2 732 3
732 232 3 232 2 3 -112 3 -113 78 -3 77 -3 -2 191 -3 190 -703 3 -702 2 0
-192z"/>
<path d="M15094 4271 c-2 -2 -4 -37 -4 -78 l0 -73 105 0 105 0 0 -735 0 -735
-105 0 -106 0 3 -72 3 -73 278 -3 277 -2 0 75 0 75 -102 0 -103 0 2 732 3 733
100 3 100 3 0 77 0 77 -276 0 c-152 0 -278 -2 -280 -4z"/>
<path d="M17864 4271 c-2 -2 -4 -37 -4 -78 l0 -73 105 0 105 0 0 -735 0 -734
-102 -3 -103 -3 0 -70 0 -70 278 -3 277 -2 0 75 0 75 -95 0 -94 0 -3 648 c-2
356 1 652 5 657 5 6 12 3 19 -8 10 -19 133 -157 268 -302 41 -44 156 -170 255
-280 174 -193 339 -373 529 -580 51 -55 144 -157 207 -227 l114 -128 3 845 2
845 110 0 110 0 0 75 c0 41 -3 75 -7 75 -5 0 -129 0 -278 1 l-270 0 -3 -75 -3
-75 91 -3 91 -3 -1 -625 c0 -359 4 -639 9 -657 12 -42 -5 -55 -31 -22 -23 29
-120 138 -203 229 -106 117 -297 329 -334 372 -20 24 -63 72 -96 108 -33 36
-78 86 -100 111 -85 96 -283 316 -341 379 -33 36 -98 108 -144 160 l-85 95
-138 5 c-76 3 -141 3 -143 1z"/>
<path d="M8640 4195 l0 -74 68 -3 67 -3 3 -732 2 -732 -67 -3 -68 -3 0 -70 0
-70 280 0 280 0 3 72 3 72 -141 3 -141 3 0 325 0 325 142 0 c116 0 143 -3 150
-15 5 -8 34 -69 65 -135 32 -66 86 -181 122 -255 35 -74 89 -187 119 -250 29
-63 58 -122 62 -130 7 -12 37 -15 171 -15 l163 0 0 70 0 70 -116 3 -116 3 -30
62 c-16 34 -53 112 -81 172 -29 61 -74 155 -100 210 -68 143 -100 214 -100
224 0 5 12 12 28 15 51 13 153 67 194 104 45 41 98 118 117 172 7 19 19 70 26
113 25 145 -14 267 -120 372 -86 86 -189 135 -345 165 -25 5 -179 9 -342 9
l-298 1 0 -75z m680 -94 c162 -45 280 -174 280 -306 0 -41 -26 -127 -49 -165
-28 -46 -84 -91 -150 -123 l-66 -31 -202 -1 c-112 0 -203 3 -203 8 0 4 0 149
0 322 l0 316 173 -4 c94 -2 192 -9 217 -16z"/>
</g>
</svg>
